<svg xmlns="http://www.w3.org/2000/svg" viewBox="0 0 64 64"><defs><linearGradient id="s" x1="0" y1="0" x2="1" y2="1"><stop offset="0" stop-color="#1b2a6b"/><stop offset=".5" stop-color="#07061a"/><stop offset="1" stop-color="#4a2378"/></linearGradient><radialGradient id="g" cx=".72" cy=".3" r=".5"><stop offset="0" stop-color="#8f6bff" stop-opacity=".45"/><stop offset="1" stop-color="#8f6bff" stop-opacity="0"/></radialGradient></defs><rect width="64" height="64" rx="14" fill="url(#s)"/><rect width="64" height="64" rx="14" fill="url(#g)"/><g fill="#fff"><circle cx="9" cy="12" r="1.1" opacity=".8"/><circle cx="22" cy="7" r=".9" opacity=".6"/><circle cx="54" cy="50" r="1.2" opacity=".75"/><circle cx="40" cy="56" r=".9" opacity=".6"/><circle cx="12" cy="52" r="1" opacity=".7"/><circle cx="31" cy="30" r=".8" opacity=".5"/><circle cx="56" cy="24" r=".8" opacity=".6"/></g><path d="M24 22q0 12 12 12q-12 0-12 12q0-12-12-12q12 0 12-12z" fill="#fff"/><path d="M47 8q0 7 7 7q-7 0-7 7q0-7-7-7q7 0 7-7z" fill="#d9c4ff"/><path d="M46 40q0 4 4 4q-4 0-4 4q0-4-4-4q4 0 4-4z" fill="#9fb4ff"/></svg>
